<!DOCTYPE svg PUBLIC "-//W3C//DTD SVG 1.1//EN" "http://www.w3.org/Graphics/SVG/1.1/DTD/svg11.dtd">
<!-- Uploaded to: SVG Repo, www.svgrepo.com, Transformed by: SVG Repo Mixer Tools -->
<svg fill="#145bff" width="800px" height="800px" viewBox="0 0 96 96" xmlns="http://www.w3.org/2000/svg" stroke="#145bff">
<g id="SVGRepo_bgCarrier" stroke-width="0"/>
<g id="SVGRepo_tracerCarrier" stroke-linecap="round" stroke-linejoin="round"/>
<g id="SVGRepo_iconCarrier">
<title/>
<path d="M80.8806,58.106A17.969,17.969,0,1,0,50.7979,38.4587a30.0584,30.0584,0,0,0-5.9173-4.3527,18,18,0,1,0-29.7612,0A29.8957,29.8957,0,0,0,0,60a5.9966,5.9966,0,0,0,6,6H42.1494A29.7165,29.7165,0,0,0,36,84a5.9966,5.9966,0,0,0,6,6H90a5.9966,5.9966,0,0,0,6-6A29.8957,29.8957,0,0,0,80.8806,58.106ZM66,42a6,6,0,1,1-6,6A6.0116,6.0116,0,0,1,66,42ZM24,24a6,6,0,1,1,6,6A6.0116,6.0116,0,0,1,24,24Zm6,18A18.0182,18.0182,0,0,1,46.9688,54H13.0313A18.018,18.018,0,0,1,30,42ZM49.0313,78a17.9974,17.9974,0,0,1,33.9375,0Z"/>
</g>
</svg>