<!DOCTYPE svg PUBLIC "-//W3C//DTD SVG 1.1//EN" "http://www.w3.org/Graphics/SVG/1.1/DTD/svg11.dtd">
<!-- Uploaded to: SVG Repo, www.svgrepo.com, Transformed by: SVG Repo Mixer Tools -->
<svg fill="#3d4aff" width="800px" height="800px" viewBox="0 0 32 32" version="1.1" xmlns="http://www.w3.org/2000/svg" stroke="#3d4aff">
<g id="SVGRepo_bgCarrier" stroke-width="0"/>
<g id="SVGRepo_tracerCarrier" stroke-linecap="round" stroke-linejoin="round"/>
<g id="SVGRepo_iconCarrier"> <title>level-two</title> <path d="M21.625 16c0 3.314-2.518 6-5.625 6s-5.625-2.686-5.625-6 2.518-6 5.625-6 5.625 2.686 5.625 6v0zM16 1c1.406 4.5 2.813 4.5 2.813 7.5 0 0-1.406 1.5-2.813 1.5s-2.813-1.5-2.813-1.5c0-3 1.406-3 2.813-7.5zM16 31c-1.406-4.5-2.813-4.5-2.813-7.5 0 0 1.406-1.5 2.813-1.5s2.813 1.5 2.813 1.5c0 3.001-1.406 3.001-2.813 7.5z"/> </g>
</svg>